<svg width="20" height="18" viewBox="0 0 20 18" fill="none" xmlns="http://www.w3.org/2000/svg">
<path d="M10.3661 0.376577C10.8543 -0.125526 11.6457 -0.125526 12.1339 0.376577L19.6339 8.09086C19.8683 8.33198 20 8.65901 20 9C20 9.34099 19.8683 9.66802 19.6339 9.90914L12.1339 17.6234C11.6457 18.1255 10.8543 18.1255 10.3661 17.6234C9.87796 17.1213 9.87796 16.3073 10.3661 15.8051L15.7322 10.2857L1.25 10.2857C0.559644 10.2857 0 9.71008 0 9C0 8.28992 0.559644 7.71429 1.25 7.71429L15.7322 7.71429L10.3661 2.19485C9.87796 1.69275 9.87796 0.87868 10.3661 0.376577Z" fill="#252525"/>
</svg>
