<svg width="420" height="60" viewBox="0 0 420 60" fill="none" xmlns="http://www.w3.org/2000/svg">
<g clip-path="url(#clip0_15:389)">
<path d="M37.9457 31.2169L35.9489 34.6667C36.4281 35.5092 41.524 44.1574 42.0032 45C43.4409 45 52.5783 45 53.984 45C53.9681 44.9682 38.2811 18.0221 37.9457 17.4497C32.8498 26.241 29.5272 32.0118 23.984 41.5503H19.9904C19.9904 41.5503 35.23 15.2241 35.9489 14H31.9553C31.9553 14 15.3259 42.7108 14 45C15.4377 45 24.5751 45 25.9808 45C25.9808 45 27.3546 42.6313 29.7508 38.482C31.2204 40.9779 33.2652 44.4436 33.5847 45.0159C34.1118 45.0159 35.7093 45.0159 37.5783 45.0159C35.9808 42.2815 33.377 37.8462 31.7316 35.0482C33.4728 32.0277 35.5655 28.419 37.9297 24.3492C38.7604 25.78 47.131 40.1195 47.9776 41.5821H43.984C43.5208 40.7236 38.4409 32.0595 37.9457 31.2169Z" fill="white"/>
</g>
<path d="M80.7633 34.9839H73.1184L71.9086 37.7258H69L76.4904 21H77.417L84.9074 37.7258H81.9731L80.7633 34.9839ZM76.9537 25.9106L74.0966 32.7155H79.7851L76.9537 25.9106Z" fill="white"/>
<path d="M99.8891 21.2742L92.3986 38H91.472L83.9816 21.2742H87.0447L91.9353 32.7155L96.826 21.2742H99.8891Z" fill="white"/>
<path d="M110.726 34.9839H103.082L101.872 37.7258H98.9632L106.454 21H107.38L114.871 37.7258H111.936L110.726 34.9839ZM106.917 25.9106L104.06 32.7155H109.748L106.917 25.9106Z" fill="white"/>
<path d="M117.576 21.2742H120.305V37.7258H117.576V21.2742ZM131.63 37.7258H128.258L120.382 28.9765L127.512 21.2742H130.858L123.805 28.9765L131.63 37.7258Z" fill="white"/>
<path d="M134.343 21.2742H145.514V23.6422H137.071V27.8548H143.429V30.1481H137.071V35.3578H145.823V37.7258H134.343V21.2742Z" fill="white"/>
<path d="M163 21.2742V38H162.073L151.726 26.5836V37.7258H148.997V21H149.95L160.272 32.3666V21.2742H163Z" fill="white"/>
<defs>
<clipPath id="clip0_15:389">
<rect width="40" height="31" fill="white" transform="translate(14 14)"/>
</clipPath>
</defs>
</svg>
